<svg width="31" height="31" viewBox="0 0 31 31" fill="none" xmlns="http://www.w3.org/2000/svg">
<path d="M7.33774 24.2348H1.54826C1.33888 24.2348 1.13808 24.1517 0.990021 24.0036C0.841966 23.8555 0.758789 23.6547 0.758789 23.4454C0.758789 23.236 0.841966 23.0352 0.990021 22.8871C1.13808 22.7391 1.33888 22.6559 1.54826 22.6559H7.33774C7.54712 22.6559 7.74792 22.7391 7.89598 22.8871C8.04403 23.0352 8.12721 23.236 8.12721 23.4454C8.12721 23.6547 8.04403 23.8555 7.89598 24.0036C7.74792 24.1517 7.54712 24.2348 7.33774 24.2348ZM29.9693 24.2348H26.8114C26.602 24.2348 26.4012 24.1517 26.2532 24.0036C26.1051 23.8555 26.0219 23.6547 26.0219 23.4454C26.0219 23.236 26.1051 23.0352 26.2532 22.8871C26.4012 22.7391 26.602 22.6559 26.8114 22.6559H29.9693C30.1787 22.6559 30.3795 22.7391 30.5276 22.8871C30.6756 23.0352 30.7588 23.236 30.7588 23.4454C30.7588 23.6547 30.6756 23.8555 30.5276 24.0036C30.3795 24.1517 30.1787 24.2348 29.9693 24.2348Z" fill="#ED5A2F"/>
<path d="M28.3902 24.2348C28.1808 24.2348 27.98 24.1516 27.832 24.0035C27.6839 23.8555 27.6008 23.6547 27.6008 23.4453V8.77055L23.8955 7.34003C23.7049 7.26135 23.5526 7.1112 23.4712 6.92169C23.3899 6.73219 23.3859 6.51838 23.4602 6.32599C23.5344 6.1336 23.681 5.9779 23.8686 5.8922C24.0562 5.8065 24.2699 5.7976 24.4639 5.8674L28.6744 7.49371C28.9797 7.61108 29.1797 7.90371 29.1797 8.23003V23.4453C29.1797 23.6547 29.0965 23.8555 28.9485 24.0035C28.8004 24.1516 28.5996 24.2348 28.3902 24.2348Z" fill="#ED5A2F"/>
<path d="M28.391 13.2295C28.3279 13.2295 28.2637 13.2217 28.1989 13.2059L23.9884 12.1532C23.8865 12.1293 23.7904 12.0854 23.7057 12.024C23.6209 11.9626 23.5492 11.885 23.4948 11.7956C23.4403 11.7063 23.4041 11.607 23.3884 11.5036C23.3726 11.4001 23.3776 11.2946 23.403 11.193C23.4283 11.0915 23.4737 10.9961 23.5363 10.9122C23.5989 10.8284 23.6776 10.7578 23.7677 10.7047C23.8578 10.6515 23.9576 10.6168 24.0613 10.6025C24.165 10.5883 24.2704 10.5948 24.3716 10.6217L28.5821 11.6743C28.7689 11.7211 28.9321 11.8346 29.0411 11.9933C29.1501 12.1521 29.1972 12.3452 29.1738 12.5363C29.1503 12.7275 29.0578 12.9034 28.9136 13.0311C28.7695 13.1588 28.5836 13.2293 28.391 13.2295ZM3.12736 24.2348C2.91798 24.2348 2.71718 24.1516 2.56912 24.0036C2.42107 23.8555 2.33789 23.6547 2.33789 23.4453V8.22955C2.33783 8.07007 2.38607 7.9143 2.47626 7.78278C2.56645 7.65125 2.69437 7.55012 2.84315 7.4927L7.05368 5.86639C7.2491 5.79101 7.46647 5.79635 7.65795 5.88124C7.84943 5.96612 7.99936 6.1236 8.07473 6.31902C8.15011 6.51444 8.14477 6.73181 8.05988 6.92329C7.975 7.11477 7.81752 7.2647 7.6221 7.34007L3.91684 8.77007V23.4453C3.91684 23.6547 3.83366 23.8555 3.68561 24.0036C3.53755 24.1516 3.33675 24.2348 3.12736 24.2348Z" fill="#ED5A2F"/>
<path d="M3.1265 13.2295C2.93393 13.2293 2.74809 13.1587 2.60394 13.0311C2.45978 12.9034 2.36726 12.7274 2.34378 12.5363C2.3203 12.3452 2.36749 12.1521 2.47646 11.9933C2.58542 11.8345 2.74866 11.7211 2.93544 11.6743L7.14597 10.6216C7.34907 10.5708 7.56404 10.6028 7.74358 10.7105C7.92312 10.8181 8.05253 10.9927 8.10334 11.1958C8.15415 11.3989 8.1222 11.6139 8.01451 11.7934C7.90683 11.973 7.73223 12.1024 7.52913 12.1532L3.3186 13.2058C3.25439 13.2216 3.18965 13.2295 3.1265 13.2295Z" fill="#ED5A2F"/>
<path d="M7.33781 24.0453C7.12843 24.0453 6.92763 23.9622 6.77957 23.8141C6.63152 23.6661 6.54834 23.4653 6.54834 23.2559V0.813766C6.54834 0.604384 6.63152 0.403579 6.77957 0.255523C6.92763 0.107468 7.12843 0.024292 7.33781 0.024292H24.1799C24.3893 0.024292 24.5901 0.107468 24.7382 0.255523C24.8862 0.403579 24.9694 0.604384 24.9694 0.813766V19.2348C24.9694 19.4442 24.8862 19.645 24.7382 19.7931C24.5901 19.9411 24.3893 20.0243 24.1799 20.0243C23.9705 20.0243 23.7697 19.9411 23.6217 19.7931C23.4736 19.645 23.3904 19.4442 23.3904 19.2348V1.60324H8.12729V23.2559C8.12729 23.4653 8.04411 23.6661 7.89606 23.8141C7.748 23.9622 7.5472 24.0453 7.33781 24.0453Z" fill="#ED5A2F"/>
<path d="M14.1798 9.49797H10.4956C10.2862 9.49797 10.0854 9.41479 9.93737 9.26674C9.78932 9.11868 9.70614 8.91788 9.70614 8.7085V4.49797C9.70614 4.28859 9.78932 4.08778 9.93737 3.93973C10.0854 3.79167 10.2862 3.7085 10.4956 3.7085H14.1798C14.3892 3.7085 14.59 3.79167 14.7381 3.93973C14.8861 4.08778 14.9693 4.28859 14.9693 4.49797V8.7085C14.9693 8.91788 14.8861 9.11868 14.7381 9.26674C14.59 9.41479 14.3892 9.49797 14.1798 9.49797ZM11.2851 7.91902H13.3903V5.28744H11.2851V7.91902ZM21.0219 9.49797H17.3377C17.1283 9.49797 16.9275 9.41479 16.7795 9.26674C16.6314 9.11868 16.5482 8.91788 16.5482 8.7085V4.49797C16.5482 4.28859 16.6314 4.08778 16.7795 3.93973C16.9275 3.79167 17.1283 3.7085 17.3377 3.7085H21.0219C21.2313 3.7085 21.4321 3.79167 21.5802 3.93973C21.7282 4.08778 21.8114 4.28859 21.8114 4.49797V8.7085C21.8114 8.91788 21.7282 9.11868 21.5802 9.26674C21.4321 9.41479 21.2313 9.49797 21.0219 9.49797ZM18.1272 7.91902H20.2325V5.28744H18.1272V7.91902ZM14.1798 16.8664H10.4956C10.2862 16.8664 10.0854 16.7832 9.93737 16.6352C9.78932 16.4871 9.70614 16.2863 9.70614 16.0769V11.8664C9.70614 11.657 9.78932 11.4562 9.93737 11.3081C10.0854 11.1601 10.2862 11.0769 10.4956 11.0769H14.1798C14.3892 11.0769 14.59 11.1601 14.7381 11.3081C14.8861 11.4562 14.9693 11.657 14.9693 11.8664V16.0769C14.9693 16.2863 14.8861 16.4871 14.7381 16.6352C14.59 16.7832 14.3892 16.8664 14.1798 16.8664ZM11.2851 15.2874H13.3903V12.6559H11.2851V15.2874ZM21.0219 16.8664H17.3377C17.1283 16.8664 16.9275 16.7832 16.7795 16.6352C16.6314 16.4871 16.5482 16.2863 16.5482 16.0769V11.8664C16.5482 11.657 16.6314 11.4562 16.7795 11.3081C16.9275 11.1601 17.1283 11.0769 17.3377 11.0769H21.0219C21.2313 11.0769 21.4321 11.1601 21.5802 11.3081C21.7282 11.4562 21.8114 11.657 21.8114 11.8664V16.0769C21.8114 16.2863 21.7282 16.4871 21.5802 16.6352C21.4321 16.7832 21.2313 16.8664 21.0219 16.8664ZM18.1272 15.2874H20.2325V12.6559H18.1272V15.2874ZM15.7588 30.0243C11.9125 30.0243 8.40666 27.8043 6.3814 24.0864C6.31825 23.9704 6.28516 23.8405 6.28516 23.7085C6.28516 23.5765 6.31825 23.4465 6.3814 23.3306C8.40614 19.6127 11.913 17.3927 15.7588 17.3927C19.6056 17.3927 23.1109 19.6127 25.1361 23.3306C25.2646 23.5659 25.2646 23.8511 25.1361 24.0864C23.1114 27.8043 19.6061 30.0243 15.7588 30.0243ZM7.98298 23.7085C9.7514 26.6827 12.6303 28.4453 15.7588 28.4453C18.8872 28.4453 21.7661 26.6827 23.5346 23.7085C21.7661 20.7343 18.8877 18.9717 15.7588 18.9717C12.6298 18.9717 9.7514 20.7343 7.98298 23.7085Z" fill="#ED5A2F"/>
<path d="M15.7589 27.919C13.4373 27.919 11.5483 26.03 11.5483 23.7085C11.5483 21.3869 13.4373 19.4979 15.7589 19.4979C18.0804 19.4979 19.9694 21.3869 19.9694 23.7085C19.9694 26.03 18.0804 27.919 15.7589 27.919ZM15.7589 21.0769C14.3078 21.0769 13.1273 22.2574 13.1273 23.7085C13.1273 25.1595 14.3078 26.34 15.7589 26.34C17.2099 26.34 18.3904 25.1595 18.3904 23.7085C18.3904 22.2574 17.2099 21.0769 15.7589 21.0769Z" fill="#ED5A2F"/>
</svg>
