<svg width="21" height="19" viewBox="0 0 21 19" fill="none" xmlns="http://www.w3.org/2000/svg">
<path fill-rule="evenodd" clip-rule="evenodd" d="M8.99963 18.7405C4.03507 18.7405 -0.000366211 14.7046 -0.000366211 9.74048C-0.000366211 4.7764 4.03507 0.740479 8.99963 0.740479C11.276 0.740479 13.4125 1.56711 15.0767 3.09297C14.522 3.42187 13.9872 3.7833 13.4752 4.17534C12.2082 3.15211 10.6282 2.59517 8.99963 2.59776C5.06525 2.59776 1.85691 5.80609 1.85691 9.74048C1.85691 13.6749 5.06525 16.8827 8.99963 16.8827C14.4738 16.8827 17.7238 11.0312 15.3694 6.48186C15.8325 6.05102 16.3121 5.63819 16.8071 5.24431C17.5949 6.60446 17.9996 8.14709 17.9996 9.74C17.9996 14.7046 13.9642 18.7405 8.99963 18.7405Z" fill="#0B3D19"/>
<path fill-rule="evenodd" clip-rule="evenodd" d="M9.23677 14.367C9.18922 14.3662 9.14295 14.3514 9.10383 14.3244C9.0647 14.2974 9.03446 14.2594 9.01694 14.2151C9.00018 14.1816 7.54807 10.4326 5.30238 9.01399C4.86321 8.74388 4.52556 8.457 4.66062 7.81524C4.79568 7.19072 5.21761 6.83583 5.97767 6.66725C7.32824 6.37989 8.78083 8.47376 9.32058 9.33487C11.2123 6.58296 14.9944 2.26016 20.4992 1.75346C20.7645 1.72233 20.8632 2.116 20.6175 2.22616C20.5332 2.25968 12.6645 5.85642 9.47288 14.2319C9.44903 14.2733 9.41459 14.3077 9.3731 14.3314C9.33161 14.3551 9.28456 14.3674 9.23677 14.367Z" fill="#0B3D19"/>
</svg>
