<svg width="19" height="19" viewBox="0 0 19 19" fill="none" xmlns="http://www.w3.org/2000/svg">
<path d="M17.702 8.46402L16.4744 7.23639C16.183 6.94503 15.9443 6.36856 15.9443 5.95613V4.21957C15.9443 3.39493 15.2697 2.72037 14.4442 2.71949H12.7076C12.2952 2.71949 11.7188 2.48077 11.4274 2.18915L10.2 0.961529C9.61678 0.378546 8.66188 0.378546 8.07868 0.961529L6.85128 2.18981C6.55965 2.48117 5.98256 2.72015 5.57101 2.72015H3.8352C3.01056 2.72015 2.33512 3.39471 2.33512 4.22023V5.9552C2.33512 6.36763 2.0964 6.94407 1.805 7.23547L0.57738 8.46375C-0.00626203 9.04673 -0.00626203 10.0012 0.57738 10.5855L1.805 11.8132C2.09658 12.1047 2.33512 12.6817 2.33512 13.0934V14.8293C2.33512 15.654 3.01056 16.3294 3.8352 16.3294H5.5711C5.98353 16.3294 6.55996 16.5681 6.85137 16.8595L8.07877 18.0871C8.66197 18.6701 9.61686 18.6701 10.2001 18.0871L11.4275 16.8595C11.7191 16.5679 12.2953 16.3294 12.7077 16.3294H14.4443C15.2698 16.3294 15.9444 15.654 15.9444 14.8293V13.0934C15.9444 12.6803 16.1833 12.1046 16.4745 11.8132L17.7021 10.5855C18.2848 10.0012 18.2848 9.04678 17.702 8.46402ZM15.414 10.7527C14.8427 11.3226 14.444 12.2863 14.444 13.0936V14.8295H12.7075C11.9004 14.8295 10.9372 15.228 10.3668 15.7993L9.13918 17.0269L7.91155 15.7993C7.34026 15.228 6.37794 14.8295 5.57088 14.8295H3.83498V13.0936C3.83498 12.2863 3.43648 11.324 2.86523 10.7527L1.63761 9.52447L2.86523 8.29619C3.43653 7.7256 3.83498 6.76323 3.83498 5.95529V4.22032H5.57088C6.37794 4.22032 7.3403 3.82116 7.91155 3.25057L9.13918 2.02229L10.367 3.24991C10.9374 3.8212 11.9006 4.21966 12.7077 4.21966H14.4442V5.95621C14.4442 6.76328 14.8427 7.72586 15.4142 8.29711L16.6414 9.52451L15.414 10.7527Z" fill="#ED5A2F"/>
<path d="M12.5786 6.14941L7.94871 10.7784L5.69957 8.52903L4.63916 9.5897L7.94871 12.8995L13.6392 7.20987L12.5786 6.14941Z" fill="#ED5A2F"/>
</svg>
