<svg width="27" height="31" viewBox="0 0 27 31" fill="none" xmlns="http://www.w3.org/2000/svg">
<path d="M3.99461 19.2441C3.4017 20.9964 2.54861 22.6496 1.46395 24.1482C1.15768 24.5712 1.28213 25.1656 1.73441 25.4268L3.23629 26.2939C3.62676 26.5194 4.12557 26.4135 4.38883 26.0475C5.13598 25.0082 5.78991 23.9049 6.34299 22.7505C5.34133 21.7589 4.53713 20.5685 3.99461 19.2441ZM11.708 25.6047V29.1454C11.708 29.6308 12.1015 30.0243 12.5869 30.0243H14.9307C15.4161 30.0243 15.8096 29.6308 15.8096 29.1454V25.6047C15.1459 25.736 14.4604 25.8055 13.7588 25.8055C13.0572 25.8055 12.3716 25.736 11.708 25.6047ZM1.4541 8.81335C0.968711 8.81335 0.575195 9.20687 0.575195 9.69226V12.036C0.575195 12.5214 0.968711 12.9149 1.4541 12.9149H3.21191V8.81335H1.4541ZM11.708 12.9149V18.1115C12.2857 18.528 12.9938 18.7743 13.7588 18.7743C14.5237 18.7743 15.2319 18.528 15.8096 18.1115V12.9149H17.2744V8.81335H15.8096V0.903198C15.8096 0.417808 15.4161 0.024292 14.9307 0.024292H12.5869C12.1015 0.024292 11.708 0.417808 11.708 0.903198V8.81335H10.2432V12.9149H11.708ZM26.0635 8.81335H24.3057V12.9149H26.0635C26.5489 12.9149 26.9424 12.5214 26.9424 12.036V9.69226C26.9424 9.20687 26.5489 8.81335 26.0635 8.81335ZM21.1746 22.7505C21.7277 23.9049 22.3816 25.0081 23.1287 26.0475C23.392 26.4135 23.8908 26.5194 24.2813 26.2939L25.7832 25.4268C26.2354 25.1656 26.36 24.5712 26.0536 24.1482C24.969 22.6496 24.1159 20.9964 23.523 19.2441C22.9804 20.5685 22.1762 21.7589 21.1746 22.7505Z" fill="#ED5A2F"/>
<path d="M19.0322 8.22742V15.2587C19.0322 18.1711 16.6713 20.5321 13.7588 20.5321C10.8463 20.5321 8.48535 18.1711 8.48535 15.2587V8.22742C8.48535 7.58019 7.9607 7.05554 7.31348 7.05554H6.1416C5.49438 7.05554 4.96973 7.58019 4.96973 8.22742V15.2587C4.96973 20.1127 8.90471 24.0477 13.7588 24.0477C18.6129 24.0477 22.5479 20.1127 22.5479 15.2587V8.22742C22.5479 7.58019 22.0232 7.05554 21.376 7.05554H20.2041C19.5569 7.05554 19.0322 7.58019 19.0322 8.22742Z" fill="#ED5A2F"/>
</svg>
