<svg width="13" height="14" viewBox="0 0 13 14" fill="none" xmlns="http://www.w3.org/2000/svg">
<g clip-path="url(#clip0_8_29)">
<path d="M11.8863 7.4539L7.55016 11.6696C7.38213 11.8356 7.15991 11.9173 6.93768 11.9173C6.71545 11.9173 6.49377 11.8349 6.32466 11.6702C5.9859 11.3409 5.9859 10.8073 6.32466 10.478L9.18163 7.70157H0.867092C0.38822 7.70157 -9.15527e-05 7.32479 -9.15527e-05 6.85843C-9.15527e-05 6.39207 0.38822 6.01529 0.867092 6.01529H9.18163L6.3252 3.23821C5.98644 2.90886 5.98644 2.37531 6.3252 2.04596C6.66396 1.71661 7.21275 1.71661 7.55152 2.04596L11.8876 6.26165C12.2251 6.59232 12.2251 7.12455 11.8863 7.4539Z" fill="black"/>
</g>
<defs>
<clipPath id="clip0_8_29">
<rect width="12.1412" height="13.4902" fill="white"/>
</clipPath>
</defs>
</svg>
