<svg width="30" height="24" viewBox="0 0 30 24" fill="none" xmlns="http://www.w3.org/2000/svg">
<path d="M11.2496 0.740479H2.81213C1.26151 0.740479 -0.000366211 2.00235 -0.000366211 3.55298V11.9905C-0.000366211 13.5411 1.26151 14.803 2.81213 14.803H6.59682L5.1737 22.1239C5.06495 22.6827 5.5262 23.2405 6.09338 23.2405H9.13088C9.94651 23.2405 10.6703 22.707 10.9178 21.9345L13.6459 15.4611C13.6618 15.4236 13.6749 15.3861 13.6862 15.3486C13.9356 14.4495 14.0621 13.5205 14.0621 12.5877V3.55298C14.0621 2.00235 12.8003 0.740479 11.2496 0.740479ZM12.1871 12.5877C12.1871 13.332 12.0887 14.0727 11.8946 14.7889L9.17026 21.253C9.15474 21.2896 9.14158 21.3272 9.13088 21.3655H7.23057L8.6537 14.0436C8.67824 13.9082 8.67296 13.769 8.63823 13.6359C8.6035 13.5027 8.54016 13.3787 8.45261 13.2725C8.36507 13.1663 8.25542 13.0804 8.13132 13.0209C8.00721 12.9615 7.87163 12.9297 7.73401 12.928H2.81213C2.29557 12.928 1.87463 12.507 1.87463 11.9905V3.55298C1.87463 3.03642 2.29557 2.61548 2.81213 2.61548H11.2496C11.7662 2.61548 12.1871 3.03642 12.1871 3.55298V12.5877ZM27.1871 0.740479H18.7496C17.199 0.740479 15.9371 2.00235 15.9371 3.55298V11.9905C15.9371 13.5411 17.199 14.803 18.7496 14.803H22.5343L21.1112 22.1249C21.0015 22.6874 21.4581 23.2405 22.0309 23.2405H25.0684C25.884 23.2405 26.6087 22.707 26.8543 21.9345L29.5843 15.4611C29.5993 15.4236 29.6124 15.3861 29.6237 15.3477C29.8731 14.4486 29.9996 13.5195 29.9996 12.5877V3.55298C29.9996 2.00235 28.7378 0.740479 27.1871 0.740479ZM28.1246 12.5877C28.1246 13.3311 28.0262 14.0708 27.8312 14.7889L25.1068 21.252C25.0918 21.2895 25.0796 21.327 25.0693 21.3655H23.1681L24.5912 14.0436C24.6156 13.9082 24.6102 13.7691 24.5754 13.636C24.5406 13.5029 24.4772 13.379 24.3897 13.2728C24.3022 13.1666 24.1926 13.0808 24.0686 13.0213C23.9446 12.9617 23.8091 12.9299 23.6715 12.928H18.7496C18.2321 12.928 17.8121 12.507 17.8121 11.9905V3.55298C17.8121 3.03642 18.2321 2.61548 18.7496 2.61548H27.1871C27.7046 2.61548 28.1246 3.03642 28.1246 3.55298V12.5877Z" fill="#479F10"/>
</svg>
