<svg width="24" height="13" viewBox="0 0 24 13" fill="none" xmlns="http://www.w3.org/2000/svg">
<path d="M23.7068 5.85988L23.706 5.85903L18.815 1.18277C18.4486 0.832451 17.8559 0.833755 17.4912 1.18582C17.1265 1.53785 17.1279 2.10723 17.4943 2.45759L20.7781 5.59716H0.954748C0.437773 5.59716 0.0187073 5.99976 0.0187073 6.49644C0.0187073 6.99311 0.437773 7.39572 0.954748 7.39572H20.7781L17.4944 10.5353C17.1279 10.8856 17.1265 11.455 17.4912 11.8071C17.856 12.1592 18.4487 12.1604 18.815 11.8101L23.706 7.13385L23.7069 7.13299C24.0735 6.78147 24.0723 6.21024 23.7068 5.85988Z" fill="black"/>
</svg>
