<svg width="17" height="17" viewBox="0 0 17 17" fill="none" xmlns="http://www.w3.org/2000/svg">
<g clip-path="url(#clip0_425_17)">
<path d="M2.20519 8.85503H13.9167L11.722 11.0472C11.0921 11.6771 12.037 12.6245 12.6669 11.9946L14.665 9.99392L16.0005 8.65849C16.1251 8.53335 16.1951 8.36393 16.1951 8.18731C16.1951 8.01069 16.1251 7.84127 16.0005 7.71613L12.6644 4.38007C12.6015 4.31558 12.5263 4.26447 12.4431 4.22983C12.36 4.19519 12.2707 4.17772 12.1806 4.17849C12.0476 4.17884 11.9177 4.21891 11.8076 4.29357C11.6975 4.36823 11.6122 4.47407 11.5627 4.59752C11.5131 4.72097 11.5016 4.85641 11.5295 4.98646C11.5575 5.11651 11.6236 5.23526 11.7195 5.32747L13.9192 7.51959H2.16991C1.24519 7.56747 1.31322 8.90038 2.20519 8.85503Z" fill="white"/>
</g>
<defs>
<clipPath id="clip0_425_17">
<rect width="16" height="16" fill="white" transform="translate(0.859619 0.187317)"/>
</clipPath>
</defs>
</svg>
