<svg width="17" height="17" viewBox="0 0 17 17" fill="none" xmlns="http://www.w3.org/2000/svg">
<g clip-path="url(#clip0_527_192)">
<path d="M2.20506 9.40215H13.9166L11.7219 11.5943C11.092 12.2242 12.0369 13.1716 12.6668 12.5417L14.6649 10.541L16.0003 9.20561C16.125 9.08047 16.1949 8.91105 16.1949 8.73443C16.1949 8.55781 16.125 8.38839 16.0003 8.26325L12.6643 4.92719C12.6014 4.86269 12.5261 4.81159 12.443 4.77695C12.3598 4.74231 12.2706 4.72484 12.1805 4.72561C12.0475 4.72596 11.9176 4.76603 11.8075 4.84069C11.6974 4.91535 11.6121 5.02119 11.5626 5.14464C11.513 5.26809 11.5015 5.40353 11.5294 5.53358C11.5574 5.66363 11.6235 5.78238 11.7194 5.87459L13.9191 8.06671H2.16979C1.24506 8.11459 1.31309 9.4475 2.20506 9.40215Z" fill="#479F10"/>
</g>
<defs>
<clipPath id="clip0_527_192">
<rect width="16" height="16" fill="white" transform="translate(0.859558 0.734375)"/>
</clipPath>
</defs>
</svg>
