<svg width="40" height="38" viewBox="0 0 40 38" fill="none" xmlns="http://www.w3.org/2000/svg">
<path d="M32.9736 12.7137C32.9736 13.3606 32.4491 13.8852 31.8021 13.8852C31.155 13.8852 30.6305 13.3606 30.6305 12.7137C30.6305 12.0667 31.1551 11.5421 31.8021 11.5421C32.449 11.5421 32.9736 12.0667 32.9736 12.7137Z" fill="#479F10"/>
<path d="M28.9463 2.16952H27.399C27.3881 2.16187 27.3771 2.15429 27.3657 2.14663C25.8933 1.13164 23.1525 -0.757111 19.2353 0.493199C19.1337 0.525855 17.6807 1.00281 16.2251 2.16952H15.2439C6.84578 2.16952 0.0134481 9.00177 0.0134481 17.4C0.0134481 17.445 0.0116512 17.5015 0.0101668 17.5693C-0.0181925 18.75 -0.104677 22.3429 3.02579 26.9586C4.12078 28.5727 4.69938 30.589 4.69969 32.7893V36.145C4.69969 36.7919 5.22398 37.3166 5.87125 37.3166H10.6357C11.2826 37.3166 11.8073 36.7919 11.8073 36.145V30.2872H16.4935V36.145C16.4935 36.7919 17.0181 37.3166 17.6651 37.3166H22.4295C23.0764 37.3166 23.6011 36.7919 23.6011 36.145C23.6011 31.6009 24.5315 27.5311 26.4456 23.7024L27.7767 21.0407L30.0369 21.4175C31.7385 21.701 32.9736 23.1592 32.9736 24.8843V26.7724C32.9736 27.4185 32.4481 27.944 31.802 27.944C31.4892 27.944 31.1949 27.822 30.9738 27.6007C30.5166 27.1435 29.7741 27.1432 29.317 27.6007L26.0055 30.9121C25.5481 31.3696 25.5481 32.1115 26.0055 32.5689C27.9538 34.5178 30.765 35.3747 33.5604 34.7345C37.2049 33.9001 40.0031 29.945 40.0031 26.2653V13.226C40.0031 7.12951 35.0431 2.16952 28.9463 2.16952ZM37.6599 26.2653C37.6599 28.9963 35.4999 31.8866 33.0374 32.4506C31.446 32.8149 29.8712 32.5265 28.5715 31.6599L30.286 29.9453C30.7531 30.1693 31.2686 30.2871 31.8021 30.2871C33.7399 30.2871 35.3168 28.7106 35.3168 26.7724V24.8846C35.3168 22.0092 33.2581 19.5792 30.4217 19.1064L27.3084 18.5877C27.0612 18.5463 26.8073 18.5854 26.584 18.6991C26.3607 18.8128 26.1797 18.9951 26.0678 19.2193L24.35 22.655C22.436 26.4831 21.4268 30.5239 21.2772 34.9737H18.8364V29.1156C18.8364 28.4686 18.3122 27.944 17.6648 27.944H15.3187C16.056 26.9644 16.4936 25.7471 16.4936 24.4293C16.4936 23.7824 15.969 23.2578 15.322 23.2578C14.6751 23.2578 14.1504 23.7824 14.1504 24.4293C14.1504 26.3674 12.5736 27.944 10.6358 27.944C9.98843 27.944 9.46421 28.4686 9.46421 29.1156V34.9737H7.04289V32.7893C7.04257 30.1184 6.32422 27.6474 4.96531 25.6436C2.25594 21.6489 2.32891 18.6206 2.35266 17.6257C2.35485 17.5357 2.35665 17.4604 2.35665 17.4002C2.35665 10.6604 7.55679 5.11264 14.1556 4.55842C13.9466 4.92714 13.7703 5.31343 13.6286 5.71288C12.6472 8.47717 13.3518 11.7144 15.7221 15.3351L19.0281 20.3848C19.3536 20.8825 20.0004 21.0568 20.5322 20.791C22.9758 19.5691 24.6064 17.8787 25.3788 15.7666C26.0264 13.995 25.9482 12.326 25.8911 11.1072C25.8777 10.8228 25.8661 10.5771 25.8661 10.3705C25.8661 9.72349 25.3415 9.19896 24.6946 9.19896C24.0476 9.19896 23.523 9.72349 23.523 10.3705C23.523 10.632 23.5364 10.9161 23.5504 11.2171C23.6478 13.2922 23.7781 16.0757 20.3913 18.1894L17.6826 14.0515C15.7358 11.0779 15.1142 8.53764 15.8353 6.50053C16.8043 3.76311 19.9168 2.73569 19.9479 2.72585C22.7701 1.82499 24.7354 3.17968 26.0361 4.07624C26.3965 4.32436 26.6193 4.51296 27.0377 4.51296H28.9466C33.7513 4.51296 37.6599 8.42162 37.6599 13.2263L37.6599 26.2653Z" fill="#479F10"/>
</svg>
