<svg width="40" height="41" viewBox="0 0 40 41" fill="none" xmlns="http://www.w3.org/2000/svg">
<g clip-path="url(#clip0_494_5)">
<path d="M37.6593 33.5887V18.2762C37.6593 8.58367 29.7388 0.69812 20.0031 0.69812C10.2673 0.69812 2.3468 8.58367 2.3468 18.2762V33.5887H0.00305176V40.6981H40.0031V33.5887H37.6593ZM4.69055 18.2762C4.69055 9.87601 11.5597 3.04187 20.0031 3.04187C28.4464 3.04187 35.3156 9.87601 35.3156 18.2762V33.5887H28.0883C27.5439 30.9175 25.1765 28.9012 22.3468 28.9012H21.1749V24.1356H22.3468C26.87 24.1356 30.5499 20.4557 30.5499 15.9325V12.4169H27.0343C24.0538 12.4169 21.4396 14.0149 20.0031 16.399C18.5665 14.0149 15.9523 12.4169 12.9718 12.4169H9.45618V15.9325C9.45618 20.4557 13.1361 24.1356 17.6593 24.1356H18.8312V28.9012H17.6593C14.8296 28.9012 12.4623 30.9175 11.9178 33.5887H4.69055V18.2762ZM25.6616 33.5887H14.3445C14.8281 32.2246 16.1314 31.245 17.6593 31.245H22.3468C23.8747 31.245 25.178 32.2246 25.6616 33.5887ZM23.862 17.4477L21.1984 20.1112C21.4573 17.1178 23.975 14.7606 27.0343 14.7606H28.2062V15.9325C28.2062 18.9918 25.849 21.5094 22.8557 21.7684L25.5192 19.1048L23.862 17.4477ZM17.1504 21.7684C14.1571 21.5094 11.7999 18.9918 11.7999 15.9325V14.7606H12.9718C16.0311 14.7606 18.5488 17.1178 18.8077 20.1111L16.1441 17.4477L14.4869 19.1049L17.1504 21.7684ZM37.6593 38.3544H2.3468V35.9325H37.6593V38.3544Z" fill="#479F10"/>
</g>
<defs>
<clipPath id="clip0_494_5">
<rect width="40" height="40" fill="white" transform="translate(0.00305176 0.69812)"/>
</clipPath>
</defs>
</svg>
