<svg width="40" height="45" viewBox="0 0 40 45" fill="none" xmlns="http://www.w3.org/2000/svg">
<path d="M30.0031 44.6981H24.0031C22.9001 44.6981 22.0031 43.8011 22.0031 42.6981V37.4761C21.9998 36.2937 22.231 35.1224 22.6835 34.03C23.136 32.9376 23.8007 31.9459 24.6391 31.1121L28.9681 26.7841C29.9061 25.8431 31.4381 25.7901 32.3811 26.6661C32.5611 26.8331 32.7251 27.0121 32.8731 27.2011C32.9571 27.0521 33.0031 26.8821 33.0031 26.7091V22.1971C33.0005 21.6046 33.1168 21.0177 33.345 20.4709C33.5733 19.9242 33.9089 19.4288 34.3321 19.0141C34.7432 18.5973 35.233 18.2663 35.773 18.0402C36.313 17.8141 36.8926 17.6975 37.4781 17.6971H37.4921C38.1631 17.6971 38.7931 17.9571 39.2681 18.4291C39.7421 18.9011 40.0031 19.5291 40.0031 20.1971V30.3721C40.0031 32.2421 39.2741 34.0001 37.9521 35.3221L32.2961 40.9791C32.109 41.1669 32.0037 41.421 32.0031 41.6861V42.6981C32.0031 43.8011 31.1061 44.6981 30.0031 44.6981ZM30.7611 28.0391C30.6192 28.0409 30.4836 28.0979 30.3831 28.1981L26.0531 32.5271C25.4013 33.1758 24.8845 33.9473 24.5327 34.7969C24.1808 35.6466 24.0008 36.5575 24.0031 37.4771V42.6991H30.0031V41.6871C30.0031 40.8861 30.3151 40.1321 30.8821 39.5661L36.5381 33.9091C37.0039 33.4458 37.3732 32.8948 37.6247 32.2878C37.8761 31.6809 38.0047 31.0301 38.0031 30.3731V20.1981C38.003 20.133 37.99 20.0686 37.965 20.0085C37.9399 19.9485 37.9032 19.894 37.8571 19.8481C37.8118 19.7959 37.7549 19.7551 37.691 19.7291C37.6271 19.703 37.5579 19.6924 37.4891 19.6981C37.1647 19.6983 36.8436 19.763 36.5446 19.8885C36.2455 20.014 35.9744 20.1978 35.7471 20.4291C35.5109 20.6591 35.3234 20.9342 35.1957 21.2381C35.0681 21.542 35.0029 21.8685 35.0041 22.1981V26.7101C35.0041 27.5111 34.6911 28.2651 34.1251 28.8311L33.7571 29.1991C33.7951 29.4221 33.8171 29.6501 33.8211 29.8821C33.8343 30.4873 33.7244 31.0889 33.498 31.6504C33.2716 32.2118 32.9334 32.7214 32.5041 33.1481L30.4791 35.1731C30.3862 35.2659 30.276 35.3396 30.1547 35.3898C30.0334 35.4401 29.9034 35.466 29.7721 35.466C29.6408 35.466 29.5107 35.4401 29.3894 35.3898C29.2681 35.3396 29.1579 35.2659 29.0651 35.1731C28.9722 35.0803 28.8986 34.97 28.8483 34.8487C28.7981 34.7274 28.7722 34.5974 28.7722 34.4661C28.7722 34.3348 28.7981 34.2048 28.8483 34.0835C28.8986 33.9622 28.9722 33.8519 29.0651 33.7591L31.0901 31.7341C31.3286 31.4969 31.5164 31.2137 31.642 30.9017C31.7677 30.5897 31.8286 30.2554 31.8211 29.9191C31.8157 29.5825 31.742 29.2505 31.6042 28.9433C31.4665 28.6361 31.2678 28.3601 31.0201 28.1321C30.9487 28.0692 30.8561 28.036 30.7611 28.0391ZM16.0031 44.6981H10.0031C8.90007 44.6981 8.00307 43.8011 8.00307 42.6981V41.6861C8.00307 41.4231 7.89707 41.1651 7.71007 40.9791L2.05407 35.3221C1.4019 34.6736 0.884818 33.9022 0.532764 33.0525C0.180711 32.2029 0.000673971 31.2918 0.00307547 30.3721V20.1971C0.00360008 19.8681 0.068954 19.5424 0.195402 19.2387C0.32185 18.935 0.506913 18.6591 0.740014 18.427C0.973115 18.1948 1.24969 18.0108 1.55392 17.8856C1.85815 17.7604 2.18408 17.6963 2.51307 17.6971H2.52707C3.11532 17.698 3.6975 17.8159 4.23969 18.0441C4.78188 18.2723 5.27322 18.6061 5.68507 19.0261C6.10511 19.44 6.43804 19.9338 6.66423 20.4784C6.89042 21.023 7.00529 21.6074 7.00207 22.1971V26.7091C7.00207 26.8811 7.04807 27.0521 7.13207 27.2011C7.28007 27.0121 7.44407 26.8331 7.62407 26.6661C8.56707 25.7921 10.0981 25.8431 11.0381 26.7841L15.3661 31.1121C16.2045 31.9459 16.8691 32.9376 17.3216 34.03C17.7741 35.1224 18.0054 36.2937 18.0021 37.4761V42.6981C18.0021 43.8011 17.1061 44.6981 16.0031 44.6981ZM2.51407 19.6981C2.38045 19.6978 2.25207 19.7501 2.15666 19.8436C2.06124 19.9372 2.00644 20.0645 2.00407 20.1981V30.3731C2.00407 31.7081 2.52507 32.9641 3.46907 33.9091L9.12507 39.5661C9.69107 40.1321 10.0041 40.8861 10.0041 41.6871V42.6991H16.0041V37.4771C16.0041 35.6071 15.2751 33.8491 13.9541 32.5271L9.62507 28.1991C9.44307 28.0171 9.14607 27.9861 8.98707 28.1331C8.73925 28.361 8.54043 28.637 8.40272 28.9442C8.26501 29.2514 8.19129 29.5835 8.18607 29.9201C8.17307 30.6061 8.43307 31.2501 8.91707 31.7351L10.9421 33.7601C11.0349 33.8529 11.1086 33.9632 11.1588 34.0845C11.2091 34.2058 11.2349 34.3358 11.2349 34.4671C11.2349 34.5984 11.2091 34.7284 11.1588 34.8497C11.1086 34.971 11.0349 35.0813 10.9421 35.1741C10.8492 35.2669 10.739 35.3406 10.6177 35.3908C10.4964 35.4411 10.3664 35.4669 10.2351 35.4669C10.1038 35.4669 9.97375 35.4411 9.85244 35.3908C9.73114 35.3406 9.62091 35.2669 9.52807 35.1741L7.50307 33.1491C7.07356 32.7225 6.73531 32.2129 6.50891 31.6515C6.2825 31.09 6.17266 30.4883 6.18607 29.8831C6.19107 29.6521 6.21207 29.4241 6.25007 29.2001L5.88207 28.8321C5.60268 28.5542 5.38114 28.2236 5.23026 27.8596C5.07939 27.4955 5.00217 27.1052 5.00307 26.7111V22.1991C5.00307 21.5301 4.74307 20.9061 4.27207 20.4421C4.04367 20.2078 3.7708 20.0213 3.46945 19.8938C3.1681 19.7662 2.84432 19.7 2.51707 19.6991L2.51407 19.6981ZM20.0031 25.6981C15.0401 25.6981 11.0031 21.6601 11.0031 16.6981C11.0031 10.5811 17.0611 0.69812 20.0031 0.69812C22.9451 0.69812 29.0031 10.5811 29.0031 16.6981C29.0031 21.6601 24.9661 25.6981 20.0031 25.6981ZM19.9621 2.69512C18.6691 2.99512 13.0031 11.0421 13.0031 16.6981C13.0031 20.5581 16.1441 23.6981 20.0031 23.6981C23.8621 23.6981 27.0031 20.5581 27.0031 16.6981C27.0031 11.0421 21.3371 2.99512 19.9621 2.69512Z" fill="#479F10"/>
<path d="M18.0021 21.1621C17.8271 21.1622 17.6553 21.116 17.504 21.0281C16.7436 20.5894 16.1122 19.9581 15.6731 19.1978C15.2341 18.4375 15.003 17.5751 15.0031 16.6971C15.0031 16.4319 15.1084 16.1776 15.2959 15.99C15.4835 15.8025 15.7378 15.6971 16.0031 15.6971C16.2683 15.6971 16.5226 15.8025 16.7102 15.99C16.8977 16.1776 17.0031 16.4319 17.0031 16.6971C17.0026 17.2237 17.1409 17.7411 17.404 18.1972C17.6672 18.6533 18.0459 19.032 18.5021 19.2951C18.6943 19.4042 18.8448 19.5739 18.9302 19.7778C19.0155 19.9816 19.0308 20.208 18.9736 20.4215C18.9164 20.6349 18.79 20.8234 18.6141 20.9572C18.4383 21.0911 18.223 21.1628 18.0021 21.1611V21.1621Z" fill="#479F10"/>
</svg>
