<svg width="10" height="10" viewBox="0 0 10 10" fill="none" xmlns="http://www.w3.org/2000/svg">
<path d="M6.17169 5.32882C6.17169 5.40025 6.13598 5.48061 6.08241 5.53418L1.92169 9.69489C1.86812 9.74847 1.78776 9.78418 1.71633 9.78418C1.64491 9.78418 1.56455 9.74847 1.51098 9.69489L1.06455 9.24847C1.01098 9.19489 0.975263 9.11454 0.975263 9.04311C0.975263 8.97168 1.01098 8.89132 1.06455 8.83775L4.57348 5.32882L1.06455 1.81989C1.01098 1.76632 0.975263 1.68596 0.975263 1.61454C0.975263 1.54311 1.01098 1.46275 1.06455 1.40918L1.51098 0.96275C1.56455 0.90918 1.64491 0.873465 1.71633 0.873465C1.78776 0.873465 1.86812 0.90918 1.92169 0.96275L6.08241 5.12347C6.13598 5.17704 6.17169 5.25739 6.17169 5.32882ZM9.60026 5.32882C9.60026 5.40025 9.56455 5.48061 9.51098 5.53418L5.35026 9.69489C5.29669 9.74847 5.21633 9.78418 5.14491 9.78418C5.07348 9.78418 4.99312 9.74847 4.93955 9.69489L4.49312 9.24847C4.43955 9.19489 4.40383 9.11454 4.40383 9.04311C4.40383 8.97168 4.43955 8.89132 4.49312 8.83775L8.00205 5.32882L4.49312 1.81989C4.43955 1.76632 4.40383 1.68596 4.40383 1.61454C4.40383 1.54311 4.43955 1.46275 4.49312 1.40918L4.93955 0.96275C4.99312 0.90918 5.07348 0.873465 5.14491 0.873465C5.21633 0.873465 5.29669 0.90918 5.35026 0.96275L9.51098 5.12347C9.56455 5.17704 9.60026 5.25739 9.60026 5.32882Z" fill="#FAAB34"/>
</svg>
