<svg width="9" height="10" viewBox="0 0 9 10" fill="none" xmlns="http://www.w3.org/2000/svg">
<path d="M5.31201 4.81613C5.31201 4.88756 5.2763 4.96791 5.22273 5.02148L1.06201 9.1822C1.00844 9.23577 0.928083 9.27148 0.856655 9.27148C0.785226 9.27148 0.704869 9.23577 0.651297 9.1822L0.204869 8.73577C0.151297 8.6822 0.115583 8.60184 0.115583 8.53041C0.115583 8.45898 0.151297 8.37863 0.204869 8.32506L3.7138 4.81613L0.204869 1.3072C0.151297 1.25363 0.115583 1.17327 0.115583 1.10184C0.115583 1.03041 0.151297 0.950055 0.204869 0.896484L0.651297 0.450055C0.704869 0.396484 0.785226 0.360769 0.856655 0.360769C0.928083 0.360769 1.00844 0.396484 1.06201 0.450055L5.22273 4.61077C5.2763 4.66434 5.31201 4.7447 5.31201 4.81613ZM8.74058 4.81613C8.74058 4.88756 8.70487 4.96791 8.6513 5.02148L4.49058 9.1822C4.43701 9.23577 4.35665 9.27148 4.28523 9.27148C4.2138 9.27148 4.13344 9.23577 4.07987 9.1822L3.63344 8.73577C3.57987 8.6822 3.54415 8.60184 3.54415 8.53041C3.54415 8.45898 3.57987 8.37863 3.63344 8.32506L7.14237 4.81613L3.63344 1.3072C3.57987 1.25363 3.54415 1.17327 3.54415 1.10184C3.54415 1.03041 3.57987 0.950055 3.63344 0.896484L4.07987 0.450055C4.13344 0.396484 4.2138 0.360769 4.28523 0.360769C4.35665 0.360769 4.43701 0.396484 4.49058 0.450055L8.6513 4.61077C8.70487 4.66434 8.74058 4.7447 8.74058 4.81613Z" fill="#ED5A2F"/>
</svg>
