<svg width="51" height="51" viewBox="0 0 51 51" fill="none" xmlns="http://www.w3.org/2000/svg">
<g clip-path="url(#clip0_791_1588)">
<path d="M50.8414 14.7607C50.7242 12.1039 50.2946 10.2776 49.679 8.69485C49.0442 7.01493 48.0674 5.51093 46.7879 4.26059C45.5374 2.99081 44.0235 2.00409 42.363 1.37916C40.7713 0.763809 38.9543 0.334038 36.2976 0.217023C33.621 0.0898495 32.7713 0.0605469 25.9829 0.0605469C19.1945 0.0605469 18.3448 0.0898495 15.6782 0.20706C13.0215 0.32427 11.1951 0.754237 9.61282 1.3692C7.93241 2.00409 6.42841 2.98084 5.17807 4.26059C3.90829 5.51083 2.92206 7.0248 2.29664 8.68528C1.68129 10.2776 1.25162 12.0941 1.1345 14.7507C1.00743 17.4273 0.978027 18.277 0.978027 25.0654C0.978027 31.8539 1.00743 32.7036 1.12454 35.3702C1.24175 38.0269 1.67172 39.8533 2.28717 41.436C2.92206 43.1159 3.90829 44.6199 5.17807 45.8703C6.42841 47.1401 7.94238 48.1268 9.60286 48.7517C11.195 49.3671 13.0115 49.7968 15.6687 49.9138C18.3348 50.0314 19.185 50.0604 25.9734 50.0604C32.7619 50.0604 33.6116 50.0314 36.2782 49.9138C38.9349 49.7967 40.7613 49.3671 42.3435 48.7517C44.0053 48.1092 45.5146 47.1265 46.7744 45.8667C48.0343 44.6069 49.0171 43.0978 49.6597 41.436C50.2747 39.8438 50.7047 38.0268 50.8218 35.3702C50.9391 32.7036 50.9684 31.8539 50.9684 25.0654C50.9684 18.277 50.9584 17.4272 50.8414 14.7607ZM46.3387 35.1748C46.2311 37.6167 45.821 38.9353 45.4791 39.8144C44.6389 41.9926 42.9101 43.7214 40.7319 44.5616C39.8528 44.9035 38.5247 45.3136 36.0923 45.4208C33.4551 45.5384 32.6642 45.5673 25.9929 45.5673C19.3216 45.5673 18.5207 45.5384 15.893 45.4208C13.4511 45.3136 12.1325 44.9035 11.2534 44.5616C10.1695 44.161 9.18285 43.5261 8.38192 42.6958C7.55168 41.8851 6.91679 40.9084 6.51612 39.8244C6.17426 38.9453 5.76412 37.6167 5.65697 35.1848C5.53937 32.5476 5.51046 31.7562 5.51046 25.0849C5.51046 18.4135 5.53937 17.6127 5.65697 14.9854C5.76412 12.5436 6.17426 11.2249 6.51612 10.3459C6.91679 9.26146 7.55168 8.27504 8.39188 7.47391C9.20219 6.64367 10.1789 6.00878 11.2633 5.6086C12.1424 5.26674 13.471 4.8565 15.9029 4.74896C18.5402 4.63175 19.3315 4.60245 26.0024 4.60245C32.6836 4.60245 33.4745 4.63175 36.1023 4.74896C38.5442 4.8566 39.8628 5.26664 40.7419 5.60851C41.8258 6.00878 42.8125 6.64367 43.6133 7.47391C44.4436 8.28471 45.0784 9.26146 45.4791 10.3459C45.821 11.2249 46.2311 12.553 46.3387 14.9854C46.4559 17.6227 46.4852 18.4135 46.4852 25.0849C46.4852 31.7562 46.456 32.5376 46.3387 35.1748Z" fill="white"/>
<path d="M25.983 12.2212C18.8919 12.2212 13.1387 17.9741 13.1387 25.0655C13.1387 32.1569 18.8919 37.9098 25.983 37.9098C33.0742 37.9098 38.8273 32.1569 38.8273 25.0655C38.8273 17.9741 33.0742 12.2212 25.983 12.2212ZM25.983 33.3972C21.3827 33.3972 17.6511 29.6662 17.6511 25.0655C17.6511 20.4648 21.3827 16.7338 25.9829 16.7338C30.5836 16.7338 34.3147 20.4648 34.3147 25.0655C34.3147 29.6662 30.5835 33.3972 25.983 33.3972ZM42.334 11.7133C42.334 13.3693 40.9913 14.7119 39.335 14.7119C37.6791 14.7119 36.3365 13.3693 36.3365 11.7133C36.3365 10.0571 37.6791 8.71484 39.3351 8.71484C40.9913 8.71484 42.334 10.057 42.334 11.7133Z" fill="white"/>
</g>
<defs>
<clipPath id="clip0_791_1588">
<rect width="50" height="50" fill="white" transform="translate(0.890137 0.0605469)"/>
</clipPath>
</defs>
</svg>
