<svg width="20" height="18" viewBox="0 0 20 18" fill="none" xmlns="http://www.w3.org/2000/svg">
<path d="M8.7903 8.66107L4.95995 12.491C4.73005 12.7209 4.35573 12.7209 4.12564 12.491C3.89649 12.2619 3.89403 11.8888 4.1256 11.6567L7.95592 7.82677C8.10848 7.67425 8.10848 7.42698 7.95596 7.27442C7.80352 7.12194 7.55617 7.12186 7.40361 7.27438L3.5731 11.1045C3.3457 11.3321 2.97267 11.3379 2.73926 11.1043C2.50843 10.8735 2.50929 10.5003 2.7393 10.2704L7.99224 5.01737L8.01474 4.39714L7.4399 4.46502L4.29781 6.72106L1.78548 10.067C1.78548 10.067 1.8234 10.3454 1.80462 10.4571C1.66288 11.2999 2.31338 12.0675 3.17217 12.0581C3.16346 12.8413 3.80025 13.4528 4.5589 13.4438C4.54906 14.2102 5.16804 14.8316 5.92935 14.8315C6.29563 14.8315 6.63988 14.6888 6.89864 14.4297L7.58159 13.7468C7.73411 13.5943 7.73411 13.347 7.58159 13.1945C7.42908 13.042 7.18184 13.042 7.02921 13.1945L6.34609 13.8775C6.11632 14.1075 5.74344 14.1088 5.51226 13.8774C5.28233 13.6475 5.28139 13.2743 5.51222 13.0434L9.34254 9.21346C9.4951 9.06094 9.4951 8.81367 9.34258 8.66111C9.19021 8.50863 8.94286 8.50856 8.7903 8.66107Z" fill="white"/>
<path d="M18.3355 2.29268C16.1206 0.0778136 12.5167 0.0777746 10.3018 2.29268C9.52795 3.06648 9.77315 2.82284 9.72335 2.87104C9.56677 3.03247 9.57743 3.27255 9.72078 3.41937C9.86634 3.56853 10.1118 3.58298 10.2761 3.42312C10.3234 3.37582 10.7936 2.90557 10.8541 2.84507C12.7644 0.934733 15.8728 0.934733 17.7832 2.84507C19.6835 4.74529 19.7114 7.84203 17.7867 9.77065L14.7804 12.6267C14.624 12.7753 14.6177 13.0225 14.7663 13.1789C14.915 13.3355 15.1622 13.3415 15.3185 13.193C18.5076 10.1632 18.3287 10.3333 18.3356 10.3265C20.5951 8.06685 20.5146 4.47189 18.3355 2.29268Z" fill="white"/>
<path d="M15.3254 11.2475L13.121 9.04308C12.5852 8.50725 11.718 8.50721 11.1821 9.04304C10.9106 9.31453 10.7773 9.67245 10.7816 10.029C10.0104 10.0198 9.38584 10.6438 9.39506 11.4156C8.63153 11.4064 7.99911 12.0224 8.0079 12.8021C7.24519 12.7934 6.62097 13.4061 6.62097 14.1721C6.62097 14.5383 6.76357 14.8826 7.02252 15.1415L9.22692 17.3459C9.49423 17.6132 9.84528 17.7469 10.1964 17.7469C10.9593 17.7469 11.5752 17.1267 11.5663 16.3606C12.3439 16.3699 12.9617 15.7387 12.9529 14.974C13.7296 14.9833 14.3486 14.3527 14.3394 13.5869C14.7211 13.5915 15.0707 13.441 15.3254 13.1864C15.8612 12.6505 15.8613 11.7834 15.3254 11.2475Z" fill="#FFC107"/>
<path d="M7.99208 5.01735L9.73583 6.76111C10.3388 7.36412 11.3019 7.36954 11.9132 6.79915C12.5584 6.197 12.5823 5.17518 11.952 4.54495L9.93175 2.52463L9.93093 2.52545L9.69853 2.29306C7.47863 0.0726869 3.88551 0.0722181 1.6647 2.2931C-0.558012 4.51675 -0.551802 8.11027 1.66474 10.3268L1.80484 10.4571C1.85171 10.1785 1.98306 9.92175 2.18682 9.71803L7.43973 4.46504L7.99208 5.01735Z" fill="#FFC107"/>
</svg>
