<svg width="21" height="19" viewBox="0 0 21 19" fill="none" xmlns="http://www.w3.org/2000/svg">
<path d="M19.3128 2.47347C17.0289 0.190172 13.3135 0.190172 11.0302 2.47347L10.4998 3.0035L9.96979 2.47347C7.68649 0.189863 3.97071 0.189863 1.68741 2.47347C-0.549529 4.71042 -0.564054 8.25621 1.65373 10.7215C3.67649 12.9693 9.64219 17.8255 9.8953 18.031C10.0671 18.1707 10.2739 18.2387 10.4794 18.2387C10.4862 18.2387 10.493 18.2387 10.4995 18.2384C10.7121 18.2483 10.9263 18.1753 11.1037 18.031C11.3568 17.8255 17.3231 12.9693 19.3465 10.7212C21.564 8.25621 21.5495 4.71042 19.3128 2.47347ZM17.9681 9.48099C16.391 11.233 12.0559 14.8465 10.4995 16.1288C8.9431 14.8468 4.60891 11.2336 3.03211 9.4813C1.48498 7.76172 1.47046 5.31276 2.99843 3.78479C3.77879 3.00474 4.80362 2.6144 5.82845 2.6144C6.85327 2.6144 7.8781 3.00443 8.65847 3.78479L9.82422 4.95055C9.96299 5.08932 10.1379 5.17214 10.3215 5.2012C10.6194 5.26517 10.9427 5.18203 11.1745 4.95086L12.3409 3.78479C13.9019 2.22437 16.4411 2.22468 18.0012 3.78479C19.5292 5.31276 19.5147 7.76172 17.9681 9.48099Z" fill="black"/>
</svg>
