<svg width="53" height="50" viewBox="0 0 53 50" fill="none" xmlns="http://www.w3.org/2000/svg">
<path d="M26.138 36.0348C32.9139 36.0348 38.4265 30.5234 38.4265 23.749C38.4228 20.491 37.127 17.3676 34.8232 15.0638C32.5195 12.7601 29.396 11.4642 26.138 11.4605C19.3636 11.4605 13.8523 16.9731 13.8523 23.749C13.8576 26.8486 15.0297 29.8327 17.1355 32.1072L15.8647 36.8481C15.7897 37.128 15.7993 37.4239 15.8925 37.6983C15.9856 37.9727 16.1581 38.2133 16.388 38.3897C16.6179 38.5661 16.895 38.6703 17.1841 38.6892C17.4733 38.7081 17.7616 38.6408 18.0125 38.4958L22.9827 35.6239C24.0122 35.8973 25.0729 36.0355 26.138 36.0348ZM22.0612 32.7731L19.6109 34.1891L20.1839 32.0514C20.2528 31.7945 20.2504 31.5236 20.177 31.2679C20.1036 31.0121 19.9619 30.7813 19.7671 30.6C18.8213 29.7279 18.0674 28.6684 17.5534 27.489C17.0395 26.3095 16.7768 25.036 16.782 23.7495C16.7827 21.7746 17.4085 19.8505 18.5698 18.2531C19.7311 16.6557 21.3682 15.4668 23.2466 14.8569C25.125 14.247 27.1483 14.2474 29.0264 14.8579C30.9046 15.4684 32.5414 16.6578 33.7021 18.2557C34.8629 19.8535 35.488 21.7777 35.488 23.7527C35.4881 25.7276 34.8629 27.6518 33.7022 29.2497C32.5415 30.8476 30.9049 32.037 29.0267 32.6476C27.1485 33.2582 25.1252 33.2586 23.2468 32.6487C23.0515 32.5851 22.8451 32.5633 22.6408 32.5847C22.4366 32.6061 22.2391 32.6702 22.0612 32.7728V32.7731ZM50.3386 24.7952C50.3546 24.1958 50.3711 23.576 50.3424 22.9306C50.2651 21.1277 49.4912 19.4251 48.1837 18.1814C46.8762 16.9377 45.137 16.2499 43.3325 16.2628C40.4363 9.63669 33.8196 4.99402 26.138 4.99402C18.4565 4.99402 11.8425 9.6366 8.94625 16.2627C7.14213 16.2499 5.4034 16.9374 4.096 18.1807C2.78859 19.4239 2.01448 21.1259 1.93658 22.9284C1.90787 23.576 1.92437 24.196 1.94029 24.7955C1.95719 25.4289 1.97457 26.0839 1.94205 26.8199C1.8645 28.6651 2.52188 30.4658 3.77003 31.8271C5.01817 33.1884 6.75522 33.9992 8.60025 34.0816C8.7095 34.0867 8.81851 34.0892 8.9273 34.0892C9.84692 34.0898 10.7573 33.9058 11.6046 33.5482C11.9585 33.3999 12.24 33.1184 12.3883 32.7644C12.5365 32.4103 12.5396 32.0122 12.3969 31.6559C12.3792 31.5868 12.3521 31.5204 12.3165 31.4586C11.0041 29.1009 10.3153 26.4473 10.3154 23.749C10.3154 15.0229 17.4134 7.92371 26.138 7.92371C34.8627 7.92371 41.9634 15.0233 41.9634 23.749C41.9737 27.4426 40.6875 31.0226 38.3291 33.8652C35.9706 36.7078 32.6895 38.6327 29.0575 39.3044C28.6749 38.4384 28.0018 37.7334 27.1545 37.3111C26.3072 36.8888 25.339 36.7757 24.4172 36.9916C23.4954 37.2074 22.678 37.7384 22.1063 38.493C21.5345 39.2475 21.2444 40.1781 21.2859 41.1239C21.3275 42.0697 21.6982 42.9712 22.334 43.6727C22.9697 44.3742 23.8306 44.8315 24.7677 44.9656C25.7049 45.0997 26.6595 44.9021 27.4664 44.4071C28.2734 43.9121 28.882 43.1506 29.1872 42.2545C31.7672 41.8277 34.2297 40.8669 36.4171 39.4337C38.6044 38.0004 40.4685 36.1262 41.8898 33.9311C42.3694 34.036 42.8589 34.089 43.3499 34.0893C43.4575 34.0893 43.5654 34.0869 43.6736 34.0819C44.5881 34.0425 45.4859 33.8234 46.3157 33.437C47.1455 33.0507 47.891 32.5046 48.5098 31.8301C49.1285 31.1555 49.6083 30.3657 49.9218 29.5057C50.2352 28.6457 50.3762 27.7324 50.3367 26.8179C50.3043 26.0843 50.3217 25.4287 50.3386 24.7952ZM8.73053 31.1549C7.66097 31.1076 6.6538 30.6382 5.92989 29.8494C5.20598 29.0607 4.82442 28.017 4.8689 26.9473C4.90592 26.1095 4.88629 25.3701 4.8689 24.7176C4.85367 24.1438 4.83961 23.602 4.86353 23.056C4.90135 22.1861 5.21904 21.3517 5.76934 20.6769C6.31964 20.0021 7.07311 19.523 7.91763 19.3109C6.99431 23.1072 7.27764 27.097 8.72818 30.7247L8.72642 30.7254C8.78346 30.8707 8.84234 31.0153 8.90308 31.1593C8.84599 31.159 8.78847 31.1575 8.73053 31.1549ZM25.3436 42.0768C25.1198 42.0769 24.901 42.0105 24.7149 41.8862C24.5287 41.7618 24.3837 41.5851 24.298 41.3784C24.2123 41.1716 24.1899 40.944 24.2335 40.7245C24.2771 40.505 24.3848 40.3033 24.5431 40.145C24.7013 39.9867 24.9029 39.8789 25.1224 39.8352C25.342 39.7914 25.5695 39.8138 25.7763 39.8994C25.9831 39.985 26.1599 40.13 26.2843 40.316C26.4087 40.5021 26.4752 40.7209 26.4753 40.9447V40.9468C26.4745 41.2466 26.355 41.5338 26.1429 41.7456C25.9308 41.9574 25.6434 42.0765 25.3436 42.0768ZM47.4098 26.9453C47.4326 27.4756 47.3507 28.0053 47.1687 28.5039C46.9867 29.0026 46.7082 29.4605 46.3492 29.8515C45.9901 30.2425 45.5575 30.5588 45.0761 30.7825C44.5947 31.0062 44.0739 31.1328 43.5435 31.1551C43.4873 31.1577 43.4311 31.1592 43.3752 31.1594C43.3776 31.1539 43.378 31.1478 43.3762 31.1421C44.9755 27.4087 45.3211 23.2574 44.3612 19.311C45.2061 19.5231 45.9598 20.0025 46.5102 20.6777C47.0606 21.3529 47.3781 22.1879 47.4154 23.0582C47.4395 23.6019 47.4252 24.1437 47.4099 24.7174C47.3925 25.3699 47.3728 26.1094 47.4098 26.9453ZM22.7156 23.6054C22.7203 23.6532 22.7226 23.7011 22.7224 23.749C22.7226 23.7973 22.7203 23.8455 22.7156 23.8935C22.7107 23.9404 22.7029 23.9883 22.6941 24.0351C22.6853 24.082 22.6726 24.1289 22.6589 24.1748C22.6453 24.2207 22.6287 24.2656 22.6101 24.3095C22.5916 24.3535 22.5711 24.3974 22.5486 24.4394C22.5261 24.4814 22.5017 24.5224 22.4753 24.5625C22.4493 24.6025 22.4209 24.641 22.3904 24.6777C22.3601 24.7158 22.3269 24.751 22.2937 24.7851C22.2596 24.8191 22.2237 24.8514 22.1863 24.8818C22.1492 24.9121 22.1101 24.9404 22.0711 24.9678C22.031 24.9931 21.99 25.0185 21.947 25.041C21.9052 25.0635 21.8622 25.0837 21.8181 25.1015C21.7741 25.1201 21.7291 25.1364 21.6834 25.1504C21.6375 25.164 21.5906 25.1758 21.5437 25.1855C21.4969 25.1951 21.4496 25.2022 21.4021 25.207C21.306 25.2161 21.2092 25.2161 21.113 25.207C21.0655 25.2022 21.0183 25.1951 20.9714 25.1855C20.9246 25.1758 20.8777 25.164 20.8318 25.1504C20.7861 25.1364 20.7411 25.1201 20.697 25.1015C20.653 25.0837 20.6099 25.0635 20.5681 25.041C20.5252 25.0185 20.4841 24.9931 20.4441 24.9678C20.405 24.9404 20.366 24.9121 20.3289 24.8818C20.2915 24.8514 20.2556 24.8191 20.2214 24.7851C20.1882 24.751 20.155 24.7158 20.1248 24.6777C20.0943 24.641 20.0659 24.6025 20.0398 24.5625C20.0138 24.5224 19.9893 24.4814 19.9666 24.4394C19.9441 24.3974 19.9236 24.3535 19.905 24.3095C19.8865 24.2656 19.8709 24.2207 19.8562 24.1748C19.8416 24.1289 19.8308 24.082 19.8211 24.0351C19.8113 23.9883 19.8045 23.9414 19.7996 23.8935C19.7947 23.8457 19.7927 23.7969 19.7927 23.749C19.7927 23.7011 19.7957 23.6533 19.7996 23.6054C19.8035 23.5576 19.8123 23.5097 19.8211 23.4629C19.8298 23.416 19.8425 23.3701 19.8562 23.3242C19.8699 23.2783 19.8865 23.2334 19.905 23.1894C19.9236 23.1455 19.9441 23.1015 19.9666 23.0595C20.0116 22.975 20.0646 22.8949 20.1248 22.8203C20.155 22.7832 20.1882 22.747 20.2214 22.7138C20.2556 22.6798 20.2915 22.6476 20.3289 22.6172C20.366 22.5869 20.405 22.5576 20.4441 22.5312C20.4842 22.5047 20.5256 22.4803 20.5681 22.458C20.6101 22.4355 20.6531 22.415 20.697 22.3965C20.741 22.3789 20.7869 22.3623 20.8318 22.3486C20.8777 22.3345 20.9243 22.3228 20.9714 22.3135C21.1603 22.2751 21.3549 22.2751 21.5437 22.3135C21.5908 22.3228 21.6374 22.3345 21.6834 22.3486C21.7283 22.3623 21.7742 22.3789 21.8181 22.3965C21.8621 22.414 21.905 22.4355 21.947 22.458C21.9896 22.4803 22.031 22.5047 22.0711 22.5312C22.1101 22.5576 22.1492 22.5869 22.1863 22.6172C22.2237 22.6476 22.2596 22.6798 22.2937 22.7138C22.3269 22.747 22.3601 22.7832 22.3904 22.8203C22.4505 22.8949 22.5035 22.975 22.5486 23.0595C22.5711 23.1015 22.5916 23.1455 22.6101 23.1894C22.6287 23.2334 22.6443 23.2783 22.6589 23.3242C22.6736 23.3701 22.6843 23.417 22.6941 23.4629C22.7039 23.5088 22.7107 23.5572 22.7156 23.6051V23.6054ZM24.6746 23.749C24.6744 23.5567 24.7122 23.3663 24.7856 23.1886C24.8591 23.0109 24.9669 22.8494 25.1028 22.7133C25.2387 22.5773 25.4001 22.4694 25.5777 22.3957C25.7553 22.3221 25.9458 22.2842 26.138 22.2842H26.1408C26.4304 22.2844 26.7135 22.3706 26.9542 22.5317C27.1949 22.6928 27.3825 22.9217 27.4931 23.1894C27.6038 23.4571 27.6326 23.7516 27.5759 24.0356C27.5193 24.3197 27.3796 24.5806 27.1747 24.7853C26.9698 24.99 26.7088 25.1294 26.4247 25.1858C26.1406 25.2422 25.8461 25.2131 25.5785 25.1022C25.3109 24.9913 25.0822 24.8035 24.9213 24.5627C24.7604 24.3218 24.6746 24.0387 24.6746 23.749ZM29.5632 23.8931C29.5585 23.8451 29.5562 23.7969 29.5564 23.7486C29.5562 23.7007 29.5585 23.6528 29.5632 23.6051C29.5681 23.5572 29.5759 23.5094 29.5847 23.4625C29.5935 23.4156 29.6062 23.3697 29.6199 23.3238C29.6337 23.278 29.65 23.233 29.6687 23.189C29.6863 23.1451 29.7078 23.1011 29.7293 23.0592C29.7752 22.9749 29.8284 22.8948 29.8884 22.8199C29.9187 22.7828 29.9519 22.7467 29.9851 22.7135C30.0193 22.6794 30.0551 22.6472 30.0925 22.6168C30.1293 22.586 30.1678 22.5573 30.2078 22.5308C30.2478 22.5048 30.2888 22.4804 30.3308 22.4576C30.3728 22.4351 30.4168 22.4146 30.4607 22.3961C30.5047 22.3775 30.5505 22.3619 30.5955 22.3482C30.6414 22.3341 30.688 22.3224 30.7351 22.3131C30.8765 22.2843 31.0213 22.2771 31.1648 22.2916C31.2127 22.2963 31.2603 22.3034 31.3074 22.3131C31.3542 22.3222 31.4005 22.334 31.4461 22.3482C31.492 22.3619 31.5379 22.3785 31.5818 22.3961C31.6257 22.4136 31.6687 22.4351 31.7107 22.4576C31.7533 22.4799 31.7946 22.5043 31.8347 22.5308C31.8738 22.5572 31.9129 22.5865 31.95 22.6168C31.9873 22.6469 32.0228 22.6792 32.0564 22.7135C32.0906 22.7467 32.1228 22.7828 32.1541 22.8199C32.1834 22.857 32.2127 22.8961 32.239 22.9361C32.2655 22.9759 32.29 23.0169 32.3123 23.0592C32.3347 23.1011 32.3552 23.1451 32.3738 23.189C32.3922 23.233 32.4082 23.278 32.4216 23.3238C32.4362 23.3693 32.448 23.4156 32.4568 23.4625C32.4669 23.5095 32.4741 23.5571 32.4783 23.6051C32.4833 23.6527 32.4859 23.7007 32.4861 23.7486C32.4859 23.7969 32.4833 23.8451 32.4783 23.8931C32.474 23.9407 32.4668 23.988 32.4568 24.0347C32.448 24.082 32.4362 24.1286 32.4216 24.1744C32.408 24.2201 32.3921 24.2651 32.3738 24.3092C32.3552 24.3531 32.3347 24.397 32.3123 24.439C32.2898 24.481 32.2654 24.522 32.239 24.5621C32.2127 24.6021 32.1834 24.6412 32.1541 24.6773C32.1228 24.7154 32.0906 24.7506 32.0564 24.7847C32.0228 24.819 31.9873 24.8513 31.95 24.8814C31.9129 24.9117 31.8738 24.94 31.8347 24.9664C31.7947 24.9932 31.7533 25.018 31.7107 25.0406C31.6689 25.0631 31.6259 25.0834 31.5818 25.1011C31.5375 25.1199 31.4922 25.1362 31.4461 25.15C31.4011 25.1636 31.3543 25.1754 31.3074 25.1851C31.2132 25.2043 31.1173 25.2138 31.0212 25.2135C30.973 25.2136 30.9248 25.2113 30.8767 25.2066C30.8292 25.2018 30.7819 25.1947 30.7351 25.1851C30.6882 25.1754 30.6414 25.1636 30.5955 25.15C30.5497 25.136 30.5048 25.1197 30.4607 25.1011C30.4163 25.0834 30.373 25.0631 30.3308 25.0406C30.2888 25.0181 30.2478 24.9928 30.2078 24.9664C30.1678 24.9403 30.1293 24.9119 30.0925 24.8814C30.0551 24.851 30.0193 24.8188 29.9851 24.7847C29.9519 24.7506 29.9187 24.7154 29.8884 24.6773C29.8579 24.6406 29.8296 24.6021 29.8035 24.5621C29.7771 24.522 29.7517 24.481 29.7293 24.439C29.7068 24.397 29.6863 24.3531 29.6687 24.3092C29.6501 24.2651 29.6338 24.2201 29.6199 24.1744C29.6062 24.1285 29.5945 24.0816 29.5847 24.0347C29.575 23.9879 29.5681 23.94 29.5632 23.8931Z" fill="#707070"/>
</svg>
