<svg width="33" height="26" viewBox="0 0 33 26" fill="none" xmlns="http://www.w3.org/2000/svg">
<path d="M29.1965 2.87537C30.9987 4.85181 32.0801 7.00793 32.0801 10.6015C32.0801 16.8902 27.5745 22.4601 21.2666 25.335L19.6446 22.9992C25.592 19.765 26.8536 15.6324 27.214 12.9373C26.3129 13.4763 25.0513 13.656 23.7897 13.4763C20.5457 13.1169 18.0225 10.6015 18.0225 7.18761C18.0225 5.57052 18.7434 3.95343 19.8248 2.69569C21.0864 1.43796 22.5282 0.898926 24.3304 0.898926C26.3129 0.898926 28.1151 1.79731 29.1965 2.87537ZM11.174 2.87537C12.9763 4.85181 14.0576 7.00793 14.0576 10.6015C14.0576 16.8902 9.55199 22.4601 3.24412 25.335L1.6221 22.9992C7.56951 19.765 8.83109 15.6324 9.19153 12.9373C8.29041 13.4763 7.02884 13.656 5.76727 13.4763C2.52322 13.1169 7.56901e-05 10.6015 7.56901e-05 7.18761C7.56901e-05 5.57052 0.720975 3.95343 1.80232 2.69569C2.88367 1.43796 4.50569 0.898926 6.30794 0.898926C8.29041 0.898926 10.0927 1.79731 11.174 2.87537Z" fill="white"/>
</svg>
